HIERARCHY
ROOT Root
{
  OFFSET 0.0 0.0 0.0
  CHANNELS 6 Xposition Yposition Zposition Zrotation Yrotation Xrotation
  JOINT Hips
  {
    OFFSET 0.0 100.0 0.0
    CHANNELS 6 Xposition Yposition Zposition Zrotation Yrotation Xrotation
    JOINT Spine1
    {
      OFFSET 5.003913 -0.037094 -0.013727
      CHANNELS 3 Zrotation Yrotation Xrotation
      JOINT Spine2
      {
        OFFSET 7.125363 -1e-06 0.0
        CHANNELS 3 Zrotation Yrotation Xrotation
        JOINT Chest
        {
          OFFSET 7.594027 1e-06 0.0
          CHANNELS 3 Zrotation Yrotation Xrotation
          JOINT Neck1
          {
            OFFSET 26.313086 -0.460272 -0.181672
            CHANNELS 3 Zrotation Yrotation Xrotation
            JOINT Neck2
            {
              OFFSET 8.045911 0.0 0.0
              CHANNELS 3 Zrotation Yrotation Xrotation
              JOINT Head
              {
                OFFSET 6.432774 0.0 0.0
                CHANNELS 3 Zrotation Yrotation Xrotation
                JOINT HeadEnd
                {
                  OFFSET 16.169773 0.06451 0.00362
                  CHANNELS 3 Zrotation Yrotation Xrotation
                }
                JOINT Jaw
                {
                  OFFSET 0.108741 3.12938 0.002639
                  CHANNELS 3 Zrotation Yrotation Xrotation
                }
                JOINT LeftEye
                {
                  OFFSET 4.45173 8.166359 3.206392
                  CHANNELS 3 Zrotation Yrotation Xrotation
                }
                JOINT RightEye
                {
                  OFFSET 4.436895 8.135758 -3.222429
                  CHANNELS 3 Zrotation Yrotation Xrotation
                }
              }
            }
          }
          JOINT LeftShoulder
          {
            OFFSET 23.218927 5.195579 1.621656
            CHANNELS 3 Zrotation Yrotation Xrotation
            JOINT LeftArm
            {
              OFFSET 15.902118 2e-06 -2e-06
              CHANNELS 3 Zrotation Yrotation Xrotation
              JOINT LeftForeArm
              {
                OFFSET 28.739307 0.0 -1e-06
                CHANNELS 3 Zrotation Yrotation Xrotation
                JOINT LeftHand
                {
                  OFFSET 27.093981 -4e-06 0.0
                  CHANNELS 3 Zrotation Yrotation Xrotation
                  JOINT LeftHandThumb1
                  {
                    OFFSET 2.276781 3.380274 0.83384
                    CHANNELS 3 Zrotation Yrotation Xrotation
                    JOINT LeftHandThumb2
                    {
                      OFFSET 4.705309 -1e-06 -1e-06
                      CHANNELS 3 Zrotation Yrotation Xrotation
                      JOINT LeftHandThumb3
                      {
                        OFFSET 2.798515 0.0 3e-06
                        CHANNELS 3 Zrotation Yrotation Xrotation
                        JOINT LeftHandThumbEnd
                        {
                          OFFSET 3.180793 4e-06 -4e-06
                          CHANNELS 3 Zrotation Yrotation Xrotation
                        }
                      }
                    }
                  }
                  JOINT LeftHandIndex1
                  {
                    OFFSET 3.247786 2.352677 0.137192
                    CHANNELS 3 Zrotation Yrotation Xrotation
                    JOINT LeftHandIndex2
                    {
                      OFFSET 6.367095 1e-06 0.0
                      CHANNELS 3 Zrotation Yrotation Xrotation
                      JOINT LeftHandIndex3
                      {
                        OFFSET 3.662364 0.0 0.0
                        CHANNELS 3 Zrotation Yrotation Xrotation
                        JOINT LeftHandIndex4
                        {
                          OFFSET 2.329242 4e-06 -4e-06
                          CHANNELS 3 Zrotation Yrotation Xrotation
                          JOINT LeftHandIndexEnd
                          {
                            OFFSET 2.767823 1e-06 0.0
                            CHANNELS 3 Zrotation Yrotation Xrotation
                          }
                        }
                      }
                    }
                  }
                  JOINT LeftHandMiddle1
                  {
                    OFFSET 3.163612 0.945023 -0.406112
                    CHANNELS 3 Zrotation Yrotation Xrotation
                    JOINT LeftHandMiddle2
                    {
                      OFFSET 6.276789 3e-06 0.0
                      CHANNELS 3 Zrotation Yrotation Xrotation
                      JOINT LeftHandMiddle3
                      {
                        OFFSET 4.35652 -1e-06 4e-06
                        CHANNELS 3 Zrotation Yrotation Xrotation
                        JOINT LeftHandMiddle4
                        {
                          OFFSET 2.996877 0.0 8e-06
                          CHANNELS 3 Zrotation Yrotation Xrotation
                          JOINT LeftHandMiddleEnd
                          {
                            OFFSET 2.323256 3e-06 -4e-06
                            CHANNELS 3 Zrotation Yrotation Xrotation
                          }
                        }
                      }
                    }
                  }
                  JOINT LeftHandRing1
                  {
                    OFFSET 2.882606 -0.309162 0.107445
                    CHANNELS 3 Zrotation Yrotation Xrotation
                    JOINT LeftHandRing2
                    {
                      OFFSET 6.033198 0.0 4e-06
                      CHANNELS 3 Zrotation Yrotation Xrotation
                      JOINT LeftHandRing3
                      {
                        OFFSET 4.350578 3e-06 0.0
                        CHANNELS 3 Zrotation Yrotation Xrotation
                        JOINT LeftHandRing4
                        {
                          OFFSET 2.651321 2e-06 -7e-06
                          CHANNELS 3 Zrotation Yrotation Xrotation
                          JOINT LeftHandRingEnd
                          {
                            OFFSET 1.937663 1e-06 -4e-06
                            CHANNELS 3 Zrotation Yrotation Xrotation
                          }
                        }
                      }
                    }
                  }
                  JOINT LeftHandPinky1
                  {
                    OFFSET 2.865315 -1.525436 0.575687
                    CHANNELS 3 Zrotation Yrotation Xrotation
                    JOINT LeftHandPinky2
                    {
                      OFFSET 5.54936 1e-06 -8e-06
                      CHANNELS 3 Zrotation Yrotation Xrotation
                      JOINT LeftHandPinky3
                      {
                        OFFSET 3.070974 0.0 -4e-06
                        CHANNELS 3 Zrotation Yrotation Xrotation
                        JOINT LeftHandPinky4
                        {
                          OFFSET 1.549672 1e-06 0.0
                          CHANNELS 3 Zrotation Yrotation Xrotation
                          JOINT LeftHandPinkyEnd
                          {
                            OFFSET 1.952123 0.0 0.0
                            CHANNELS 3 Zrotation Yrotation Xrotation
                          }
                        }
                      }
                    }
                  }
                }
              }
            }
          }
          JOINT RightShoulder
          {
            OFFSET 23.161716 5.296122 -1.380114
            CHANNELS 3 Zrotation Yrotation Xrotation
            JOINT RightArm
            {
              OFFSET -16.027195 -2e-06 1.1e-05
              CHANNELS 3 Zrotation Yrotation Xrotation
              JOINT RightForeArm
              {
                OFFSET -28.736639 4e-06 2e-06
                CHANNELS 3 Zrotation Yrotation Xrotation
                JOINT RightHand
                {
                  OFFSET -27.133619 6e-06 0.0
                  CHANNELS 3 Zrotation Yrotation Xrotation
                  JOINT RightHandThumb1
                  {
                    OFFSET -2.274328 -3.351035 -0.83067
                    CHANNELS 3 Zrotation Yrotation Xrotation
                    JOINT RightHandThumb2
                    {
                      OFFSET -4.703594 -3e-06 2e-06
                      CHANNELS 3 Zrotation Yrotation Xrotation
                      JOINT RightHandThumb3
                      {
                        OFFSET -2.794935 -4e-06 -3e-06
                        CHANNELS 3 Zrotation Yrotation Xrotation
                        JOINT RightHandThumbEnd
                        {
                          OFFSET -3.183852 4e-06 1e-06
                          CHANNELS 3 Zrotation Yrotation Xrotation
                        }
                      }
                    }
                  }
                  JOINT RightHandIndex1
                  {
                    OFFSET -3.253496 -2.33755 -0.127667
                    CHANNELS 3 Zrotation Yrotation Xrotation
                    JOINT RightHandIndex2
                    {
                      OFFSET -6.344434 0.0 0.0
                      CHANNELS 3 Zrotation Yrotation Xrotation
                      JOINT RightHandIndex3
                      {
                        OFFSET -3.654871 0.0 -8e-06
                        CHANNELS 3 Zrotation Yrotation Xrotation
                        JOINT RightHandIndex4
                        {
                          OFFSET -2.327586 -1e-06 0.0
                          CHANNELS 3 Zrotation Yrotation Xrotation
                          JOINT RightHandIndexEnd
                          {
                            OFFSET -2.770001 3e-06 8e-06
                            CHANNELS 3 Zrotation Yrotation Xrotation
                          }
                        }
                      }
                    }
                  }
                  JOINT RightHandMiddle1
                  {
                    OFFSET -3.168223 -0.944764 0.411762
                    CHANNELS 3 Zrotation Yrotation Xrotation
                    JOINT RightHandMiddle2
                    {
                      OFFSET -6.266691 -1e-06 -4e-06
                      CHANNELS 3 Zrotation Yrotation Xrotation
                      JOINT RightHandMiddle3
                      {
                        OFFSET -4.348901 0.0 0.0
                        CHANNELS 3 Zrotation Yrotation Xrotation
                        JOINT RightHandMiddle4
                        {
                          OFFSET -3.00024 2e-06 -4e-06
                          CHANNELS 3 Zrotation Yrotation Xrotation
                          JOINT RightHandMiddleEnd
                          {
                            OFFSET -2.321477 -4e-06 -4e-06
                            CHANNELS 3 Zrotation Yrotation Xrotation
                          }
                        }
                      }
                    }
                  }
                  JOINT RightHandRing1
                  {
                    OFFSET -2.885654 0.293261 -0.119232
                    CHANNELS 3 Zrotation Yrotation Xrotation
                    JOINT RightHandRing2
                    {
                      OFFSET -6.032835 -1e-06 -4e-06
                      CHANNELS 3 Zrotation Yrotation Xrotation
                      JOINT RightHandRing3
                      {
                        OFFSET -4.33881 0.0 -4e-06
                        CHANNELS 3 Zrotation Yrotation Xrotation
                        JOINT RightHandRing4
                        {
                          OFFSET -2.654903 -4e-06 -4e-06
                          CHANNELS 3 Zrotation Yrotation Xrotation
                          JOINT RightHandRingEnd
                          {
                            OFFSET -1.935122 0.0 4e-06
                            CHANNELS 3 Zrotation Yrotation Xrotation
                          }
                        }
                      }
                    }
                  }
                  JOINT RightHandPinky1
                  {
                    OFFSET -2.866241 1.503904 -0.60527
                    CHANNELS 3 Zrotation Yrotation Xrotation
                    JOINT RightHandPinky2
                    {
                      OFFSET -5.553177 -2e-06 0.0
                      CHANNELS 3 Zrotation Yrotation Xrotation
                      JOINT RightHandPinky3
                      {
                        OFFSET -3.062664 -1e-06 -4e-06
                        CHANNELS 3 Zrotation Yrotation Xrotation
                        JOINT RightHandPinky4
                        {
                          OFFSET -1.546529 2e-06 4e-06
                          CHANNELS 3 Zrotation Yrotation Xrotation
                          JOINT RightHandPinkyEnd
                          {
                            OFFSET -1.952341 0.0 -4e-06
                            CHANNELS 3 Zrotation Yrotation Xrotation
                          }
                        }
                      }
                    }
                  }
                }
              }
            }
          }
        }
      }
    }
    JOINT LeftLeg
    {
      OFFSET -8.443107 2.567604 10.043214
      CHANNELS 3 Zrotation Yrotation Xrotation
      JOINT LeftShin
      {
        OFFSET 43.229198 1e-06 -1e-06
        CHANNELS 3 Zrotation Yrotation Xrotation
        JOINT LeftFoot
        {
          OFFSET 42.298611 1e-06 1e-06
          CHANNELS 3 Zrotation Yrotation Xrotation
          JOINT LeftToeBase
          {
            OFFSET 14.165858 1e-06 0.0
            CHANNELS 3 Zrotation Yrotation Xrotation
            JOINT LeftToeEnd
            {
              OFFSET 6.7141 -0.234461 0.0
              CHANNELS 3 Zrotation Yrotation Xrotation
            }
          }
        }
      }
    }
    JOINT RightLeg
    {
      OFFSET -8.303923 2.592729 -10.047278
      CHANNELS 3 Zrotation Yrotation Xrotation
      JOINT RightShin
      {
        OFFSET -43.369682 0.0 1e-06
        CHANNELS 3 Zrotation Yrotation Xrotation
        JOINT RightFoot
        {
          OFFSET -42.260784 4e-06 2e-06
          CHANNELS 3 Zrotation Yrotation Xrotation
          JOINT RightToeBase
          {
            OFFSET -14.222245 -2e-06 -1e-06
            CHANNELS 3 Zrotation Yrotation Xrotation
            JOINT RightToeEnd
            {
              OFFSET -6.660062 0.232574 -2e-06
              CHANNELS 3 Zrotation Yrotation Xrotation
            }
          }
        }
      }
    }
  }
}
MOTION
Frames: 5
Frame Time: 0.03333333333333333
0.0 0.0 0.0 0.0 -0.0 0.0 13.995305 15.062541 106.919548 -41.539677 -71.277931 -82.839142 2.822073 -9.928845 -5.43699 -10.400534 -2.400828 -3.460692 12.007171 -12.470402 -9.876607 45.20715 21.320112 6.475744 -1.639061 6.172835 -1.363569 -9.146027 9.225117 -2.190052 3e-06 -2e-06 1e-06 -0.37183 0.379088 0.224561 0.789941 1.334628 0.232776 1.441154 -0.638445 0.195675 32.789619 -86.589409 -20.602282 57.366936 -8.835776 -66.825249 115.517929 -2.645419 -0.419172 6.407899 21.819693 18.154686 17.636639 -26.322741 52.411201 -19.466665 -14.395606 29.410395 -0.0 -8.774822 -1e-06 15.234884 -18.364964 6.564649 -0.609776 -1.795654 -3.889329 -4.807089 -11.046813 -2.937848 5e-06 -20.976021 -2e-06 -5.019969 -25.033562 -4.03188 7e-06 1e-06 3e-06 -10.634535 -5.686972 -3.565589 10.573277 -17.922956 -3.113902 4e-06 -13.821212 0.0 -0.501777 -31.181511 -4.027017 -13.746153 -58.729942 8.892374 -13.982717 -7.150199 -2.875041 13.772733 -8.401495 -3.218243 0.347734 -34.211559 0.771655 -0.963027 -17.733374 2.621021 -0.0 -2e-06 -1e-06 -17.346424 -20.095222 -4.20178 21.757563 -1.638377 3.866428 1e-06 -6.338825 1e-06 -1.69759 -22.591755 -6.194006 -0.0 -3e-06 -2e-06 107.916962 -58.971664 83.451393 -44.256596 -84.519485 18.382368 176.150604 -6.705515 -0.156413 -6.660387 16.644083 55.405403 22.182125 -20.375887 49.933311 -16.701822 -16.743532 28.476536 -5e-06 -12.690605 -2e-06 15.220371 -15.805625 2.65236 -0.105917 -1.513857 -4.275882 -5.039042 -5.612873 -2.953557 3e-06 -11.020526 -4e-06 -6.111298 -15.895334 -3.840472 -1e-06 1e-06 0.0 -10.283374 -5.68029 -4.341838 11.028297 -11.302407 -2.372634 -1.384269 -14.238583 -6.320123 -0.625437 -26.924198 -3.827606 -3.655386 -47.654831 -4.708678 -13.708527 -7.363478 -3.720937 18.141155 -14.05274 -3.242676 9e-06 -18.787275 -3e-06 -0.429715 -8.456047 2.555503 1e-06 1e-06 -0.0 -15.923539 -20.094486 -5.473585 30.419224 -7.190828 1.735929 2e-06 -8.162927 -1e-06 -1.861899 -22.861473 -6.167949 1e-06 -3e-06 0.0 78.162682 -3.25393 -12.877573 107.681511 -4.288446 1.630443 -59.096252 -2.853134 -3.181898 -7.731176 1.920101 3.141105 -0.999998 1e-06 -0.0 -13.113953 -10.716808 48.28981 51.064083 17.052139 -28.247368 -77.481911 0.19376 -25.115042 -8.096082 -0.047482 0.983268 -1.000005 -0.0 -1e-06 
0.0 0.0 0.0 0.0 -0.0 0.0 13.99027 15.022344 106.988785 -41.505451 -71.26297 -82.851067 2.803373 -9.895116 -5.441483 -10.417093 -2.36446 -3.451348 12.017289 -12.486112 -9.871362 45.227127 21.241587 6.440967 -1.621733 6.240753 -1.318448 -8.9663 9.298183 -1.973929 5e-06 -0.0 0.0 -0.380037 0.351118 0.194567 0.803871 1.297239 0.217009 1.460249 -0.655382 0.151265 32.944294 -86.603851 -20.665445 57.255016 -8.694102 -66.867119 115.586006 -2.66161 -0.44478 6.328382 21.862511 18.475113 17.636629 -26.322729 52.411182 -19.46666 -14.395596 29.410381 -2e-06 -8.774822 -2e-06 15.241815 -18.417349 6.627363 -0.609777 -1.795653 -3.889327 -4.807087 -11.046807 -2.937847 5e-06 -20.976013 -1e-06 -5.019967 -25.033556 -4.031882 6e-06 1e-06 0.0 -10.634533 -5.686967 -3.565587 10.573275 -17.922947 -3.113899 4e-06 -13.821206 2e-06 -0.501773 -31.181498 -4.027015 -13.825344 -58.85355 8.985428 -13.982711 -7.150194 -2.875042 13.772727 -8.401491 -3.21824 0.347736 -34.211544 0.771655 -0.963026 -17.733362 2.621018 -1e-06 -1e-06 1e-06 -17.346411 -20.095211 -4.201782 21.757555 -1.638378 3.866426 2e-06 -6.338822 3e-06 -1.697587 -22.59174 -6.194004 1e-06 -2e-06 -2e-06 108.25293 -58.943802 83.242203 -45.257275 -84.610428 19.292879 176.290085 -6.736011 -0.137187 -6.748035 16.685894 55.392014 22.182117 -20.375891 49.933308 -16.701811 -16.743528 28.476526 -2e-06 -12.690601 -3e-06 15.30233 -15.830632 2.634125 -0.105919 -1.513857 -4.27588 -5.03904 -5.612871 -2.953555 3e-06 -11.020524 -3e-06 -6.111296 -15.89533 -3.84047 -0.0 -1e-06 1e-06 -10.283369 -5.680289 -4.341838 11.028291 -11.302404 -2.372631 -1.384273 -14.238579 -6.32012 -0.625439 -26.924191 -3.827602 -3.70942 -47.742725 -4.64928 -13.708525 -7.363478 -3.720939 18.141144 -14.052739 -3.242671 7e-06 -18.787266 -2e-06 -0.429714 -8.456045 2.555503 1e-06 0.0 -0.0 -15.923536 -20.094482 -5.473583 30.419207 -7.190827 1.735929 2e-06 -8.162925 -2e-06 -1.861903 -22.861467 -6.167943 1e-06 -3e-06 -0.0 78.238297 -3.25332 -12.818143 107.59584 -4.267718 1.626055 -59.113091 -2.793316 -3.075619 -7.750814 1.911923 3.126668 -0.999999 0.0 0.0 -13.05188 -10.686015 48.219383 50.910786 16.960674 -28.276075 -77.542664 0.173239 -25.126024 -8.086149 -0.03136 0.994803 -1.000003 0.0 0.0 
0.0 0.0 0.0 0.0 -0.0 0.0 13.952202 15.010691 107.060959 -41.519314 -71.251625 -82.81488 2.786353 -9.846242 -5.443466 -10.424414 -2.34606 -3.457348 12.038831 -12.504137 -9.84987 45.199833 21.156858 6.414771 -1.598682 6.30675 -1.265367 -8.837029 9.408736 -1.817703 4e-06 0.0 0.0 -0.386301 0.330426 0.170762 0.82082 1.266951 0.208668 1.487705 -0.665505 0.113105 33.077278 -86.601433 -20.726892 57.174183 -8.575523 -66.823235 115.609833 -2.631381 -0.396232 6.274923 21.955061 18.747919 17.636627 -26.322721 52.411179 -19.466652 -14.395587 29.410378 -1e-06 -8.77482 -3e-06 15.277389 -18.445412 6.650302 -0.609776 -1.795654 -3.889327 -4.807086 -11.046809 -2.93785 5e-06 -20.976011 -4e-06 -5.019964 -25.033552 -4.031883 6e-06 1e-06 -0.0 -10.634531 -5.68697 -3.565588 10.573271 -17.922945 -3.113899 3e-06 -13.821206 1e-06 -0.501771 -31.181498 -4.027019 -13.859357 -58.952007 9.023011 -13.982711 -7.150196 -2.875044 13.772722 -8.401489 -3.21824 0.347734 -34.211544 0.771654 -0.963026 -17.733362 2.621017 -1e-06 -1e-06 1e-06 -17.346411 -20.095213 -4.201786 21.757547 -1.638376 3.866427 1e-06 -6.338822 1e-06 -1.697587 -22.591742 -6.194005 -1e-06 -3e-06 -2e-06 108.570358 -58.933392 83.040627 -45.921551 -84.715538 19.770802 176.406723 -6.744327 -0.125103 -6.831552 16.69591 55.379406 22.182117 -20.375891 49.933319 -16.701811 -16.743528 28.476528 -4e-06 -12.6906 -1e-06 15.39853 -15.856388 2.611517 -0.10592 -1.513856 -4.275879 -5.03904 -5.612871 -2.953557 4e-06 -11.02052 -3e-06 -6.111295 -15.895328 -3.840472 -1e-06 -1e-06 1e-06 -10.283371 -5.680285 -4.341838 11.028293 -11.302402 -2.372632 -1.384268 -14.238577 -6.32012 -0.625436 -26.924185 -3.827603 -3.744024 -47.812477 -4.619996 -13.708526 -7.363474 -3.720939 18.141148 -14.052736 -3.242674 8e-06 -18.787264 -2e-06 -0.429712 -8.456041 2.555505 -0.0 -0.0 -1e-06 -15.923528 -20.094477 -5.473587 30.419205 -7.190827 1.735925 2e-06 -8.162922 0.0 -1.861902 -22.861462 -6.167939 0.0 -4e-06 -0.0 78.305923 -3.262187 -12.75951 107.464897 -4.217428 1.623964 -59.051762 -2.723982 -2.976758 -7.818903 1.898384 3.107014 -1.0 -1e-06 0.0 -13.031815 -10.655096 48.194141 50.810001 16.885998 -28.315342 -77.582039 0.165958 -25.193502 -8.140785 -0.01363 1.015377 -1.000002 0.0 -1e-06 
0.0 0.0 0.0 0.0 -0.0 0.0 13.907853 15.002054 107.128563 -41.611965 -71.238998 -82.680916 2.771316 -9.807198 -5.452272 -10.423349 -2.341299 -3.476561 12.077743 -12.5114 -9.834702 45.120239 21.090738 6.387672 -1.577387 6.345226 -1.212828 -8.765548 9.520214 -1.712445 6e-06 -1e-06 0.0 -0.384914 0.324082 0.162956 0.843207 1.25034 0.212126 1.522268 -0.661744 0.095837 33.148048 -86.587173 -20.75371 57.147526 -8.490341 -66.738281 115.603302 -2.55801 -0.308166 6.210218 22.083958 18.90571 17.636625 -26.322727 52.411194 -19.466656 -14.3956 29.410385 0.0 -8.774821 -2e-06 15.314981 -18.42746 6.622901 -0.609776 -1.795653 -3.889327 -4.80709 -11.046807 -2.93785 5e-06 -20.976006 -2e-06 -5.019968 -25.033546 -4.031882 6e-06 0.0 2e-06 -10.634537 -5.686968 -3.565585 10.573275 -17.922945 -3.113902 2e-06 -13.821203 2e-06 -0.501778 -31.181488 -4.027012 -13.821925 -58.995937 8.968473 -13.982714 -7.150196 -2.875041 13.772731 -8.401489 -3.21824 0.347734 -34.21154 0.771655 -0.963028 -17.733366 2.62102 -0.0 -1e-06 -0.0 -17.34642 -20.095209 -4.201779 21.757559 -1.638375 3.866426 -0.0 -6.338823 1e-06 -1.697589 -22.591734 -6.194005 1e-06 -4e-06 -2e-06 108.823624 -58.946358 82.901512 -45.804279 -84.850258 19.415791 176.510223 -6.760017 -0.11703 -6.914967 16.680016 55.431778 22.182108 -20.375895 49.933319 -16.701817 -16.74353 28.476532 -4e-06 -12.690599 -1e-06 15.465547 -15.873102 2.585144 -0.10592 -1.513856 -4.275881 -5.039037 -5.612871 -2.953557 5e-06 -11.020524 -2e-06 -6.111295 -15.89533 -3.840469 -1e-06 1e-06 -0.0 -10.283364 -5.680287 -4.341839 11.028293 -11.302404 -2.372632 -1.384267 -14.238577 -6.320119 -0.625435 -26.924183 -3.827599 -3.763315 -47.869381 -4.606845 -13.708519 -7.363475 -3.720941 18.141144 -14.052735 -3.242672 1.1e-05 -18.787268 -2e-06 -0.42971 -8.456043 2.555503 -0.0 1e-06 1e-06 -15.923528 -20.094479 -5.473586 30.419205 -7.190827 1.735924 3e-06 -8.162924 -1e-06 -1.861899 -22.861467 -6.167942 -0.0 -3e-06 1e-06 78.376343 -3.267948 -12.761117 107.324608 -4.180813 1.6171 -58.93512 -2.636723 -2.855344 -7.888465 1.890478 3.086418 -1.000001 1e-06 -1e-06 -13.01417 -10.64658 48.178112 50.734501 16.823162 -28.339773 -77.557663 0.125325 -25.290733 -8.242395 0.000892 1.035204 -1.000004 0.0 -1e-06 
0.0 0.0 0.0 0.0 -0.0 0.0 13.871333 14.993608 107.195374 -41.845474 -71.220367 -82.411743 2.761308 -9.799574 -5.459335 -10.425779 -2.337902 -3.484271 12.126143 -12.540173 -9.831745 45.027855 21.087715 6.363288 -1.568369 6.338058 -1.16995 -8.718853 9.599282 -1.617185 4e-06 -0.0 1e-06 -0.379584 0.332173 0.166657 0.860725 1.244007 0.224023 1.552779 -0.64026 0.092937 33.515011 -86.515808 -21.084791 57.136574 -8.436165 -66.683731 115.604576 -2.471268 -0.208532 6.074378 22.200365 18.988882 17.636635 -26.322748 52.411224 -19.466665 -14.395606 29.410406 -0.0 -8.774826 -3e-06 15.317277 -18.399023 6.576963 -0.609776 -1.795654 -3.889328 -4.807091 -11.046813 -2.937849 5e-06 -20.976019 -2e-06 -5.019973 -25.033564 -4.031883 8e-06 2e-06 1e-06 -10.634538 -5.686972 -3.565589 10.573277 -17.922955 -3.113903 2e-06 -13.821213 2e-06 -0.501776 -31.181511 -4.027018 -13.793933 -58.980583 8.864211 -13.982719 -7.150199 -2.875044 13.772735 -8.401493 -3.218242 0.347733 -34.211559 0.771657 -0.963029 -17.733374 2.621022 -1e-06 -2e-06 -0.0 -17.346424 -20.095224 -4.201784 21.757565 -1.638375 3.866429 0.0 -6.338826 1e-06 -1.69759 -22.591751 -6.194011 1e-06 -2e-06 -1e-06 108.937248 -58.975872 82.889908 -44.839016 -84.980652 18.285933 176.602676 -6.804645 -0.109318 -7.019777 16.631823 55.565437 22.182112 -20.375895 49.933327 -16.701817 -16.74353 28.476538 -4e-06 -12.690603 -0.0 15.481251 -15.874079 2.557514 -0.10592 -1.513858 -4.275883 -5.039042 -5.612872 -2.953557 4e-06 -11.020526 -2e-06 -6.111297 -15.895334 -3.840472 -2e-06 1e-06 1e-06 -10.283371 -5.680288 -4.341839 11.028294 -11.302406 -2.372634 -1.384271 -14.238581 -6.320122 -0.625437 -26.924192 -3.827604 -3.8039 -47.89397 -4.579972 -13.708526 -7.363477 -3.72094 18.14115 -14.052742 -3.242676 9e-06 -18.787271 -3e-06 -0.429711 -8.456045 2.555503 -1e-06 0.0 -0.0 -15.923536 -20.09449 -5.473586 30.419218 -7.190826 1.735924 1e-06 -8.162925 -1e-06 -1.861901 -22.861471 -6.167946 1e-06 -3e-06 -0.0 78.462624 -3.262751 -12.839284 107.180916 -4.17178 1.601407 -58.850208 -2.570863 -2.795573 -7.93726 1.890009 3.068531 -0.999998 -0.0 -0.0 -12.992689 -10.688993 48.163399 50.664944 16.748531 -28.330746 -77.468201 0.050938 -25.338322 -8.34233 0.011392 1.046883 -1.000005 1e-06 0.0 
